<svg width="562" height="437" viewBox="0 0 562 437" fill="none" xmlns="http://www.w3.org/2000/svg">
<path d="M38.7441 400.001C38.7441 404.013 35.4914 407.265 31.4795 407.266H23.0039V436.323H15.7402V407.266H7.26465C3.25249 407.266 0 404.013 0 400.001H38.7441ZM89.4863 400.001C89.4863 404.013 86.2336 407.265 82.2217 407.266H62.0068C59.7977 407.266 58.0068 409.056 58.0068 411.266V414.53H81.8535V421.795H58.0068V425.059C58.0068 427.268 59.7977 429.059 62.0068 429.059H82.2217C86.2336 429.059 89.4863 432.311 89.4863 436.323H62.7422C56.1148 436.323 50.7422 430.951 50.7422 424.323V412.001C50.7422 405.374 56.1148 400.001 62.7422 400.001H89.4863ZM136.6 400.001C136.6 404.013 133.347 407.266 129.335 407.266H112.385C110.379 407.266 108.753 408.892 108.753 410.897V425.427C108.753 427.432 110.379 429.058 112.385 429.059H129.335C133.347 429.059 136.6 432.311 136.6 436.323H112.385C106.367 436.323 101.489 431.444 101.488 425.427V410.897C101.488 404.88 106.367 400.001 112.385 400.001H136.6ZM155.862 414.53H180.077V400.001H187.342V436.323H180.077V421.795H155.862V436.323H148.598V400.001H155.862V414.53ZM201.222 400.001C204.493 400.001 207.622 401.337 209.886 403.698L230.823 425.546V400.001H238.088V436.323H236.21C232.939 436.323 229.809 434.988 227.546 432.626L206.608 410.778V436.323H199.344V400.001H201.222ZM277.934 400.001C283.951 400.001 288.83 404.88 288.83 410.897V425.427C288.83 431.445 283.95 436.323 277.933 436.323H260.982C254.965 436.323 250.086 431.444 250.086 425.427V410.897C250.086 404.88 254.965 400.001 260.982 400.001H277.934ZM339.576 400.001C339.576 404.013 336.323 407.265 332.312 407.266H323.836V436.323H316.572V407.266H308.097C304.085 407.266 300.832 404.013 300.832 400.001H339.576ZM358.839 414.53H383.054V400.001H390.318V436.323H383.054V421.795H358.839V436.323H351.574V400.001H358.839V414.53ZM441.064 400.001C441.064 404.013 437.812 407.265 433.8 407.266H413.585C411.376 407.266 409.585 409.056 409.585 411.266V414.53H433.432V421.795H409.585V425.059C409.585 427.268 411.376 429.059 413.585 429.059H433.8C437.812 429.059 441.064 432.311 441.064 436.323H414.32C407.693 436.323 402.32 430.951 402.32 424.323V412.001C402.32 405.374 407.693 400.001 414.32 400.001H441.064ZM460.327 436.323H453.062V400.001H460.327V436.323ZM509.717 400.001C509.717 404.013 506.464 407.266 502.452 407.266H483.225C481.219 407.266 479.593 408.892 479.593 410.897C479.593 412.903 481.219 414.53 483.225 414.53H500.176C506.193 414.531 511.072 419.409 511.072 425.427C511.072 431.445 506.193 436.323 500.175 436.323H473.533C473.533 432.311 476.786 429.059 480.798 429.059H500.175C502.181 429.059 503.807 427.433 503.808 425.427C503.808 423.421 502.181 421.795 500.176 421.795H483.225C477.207 421.795 472.328 416.915 472.328 410.897C472.328 404.88 477.207 400.001 483.225 400.001H509.717ZM561.814 436.323H554.55V411.191L542.442 423.299L530.335 411.191V436.323H523.07V400.001C527.135 400.001 531.032 401.615 533.906 404.489L542.442 413.025L550.978 404.489C553.852 401.615 557.75 400.001 561.814 400.001V436.323ZM260.982 407.266C258.977 407.266 257.351 408.892 257.351 410.897V425.427C257.351 427.432 258.977 429.058 260.982 429.059H277.933C279.938 429.059 281.565 427.433 281.565 425.427V410.897C281.565 408.892 279.939 407.266 277.934 407.266H260.982Z" fill="#8D52E0"/>
<path d="M360.141 162.861C360.722 163.095 361.299 163.331 361.872 163.571C384.426 173.026 395.685 185.461 395.638 197.879L395.556 226.875C395.603 214.457 384.343 202.022 361.789 192.567C361.244 192.339 360.694 192.114 360.141 191.892V162.861ZM178.815 204.754C173.647 209.048 170.123 213.607 168.219 218.262V218.271C167.119 220.958 166.563 223.681 166.551 226.403L166.634 197.406C166.634 194.684 167.202 191.962 168.302 189.274V189.265C170.206 184.61 173.742 180.05 178.898 175.757L178.815 204.754ZM202.039 191.653C201.281 191.956 200.529 192.263 199.786 192.576C191.093 196.243 184.103 200.366 178.816 204.763L178.899 175.766C184.186 171.369 191.176 167.255 199.868 163.58C200.584 163.278 201.309 162.983 202.039 162.69V191.653Z" fill="url(#paint0_linear_294_12218)"/>
<path d="M281.091 0C280.914 6.43208 280.736 12.8728 280.583 19.3048C279.128 77.2193 278.395 135.134 278.395 193.048C278.395 250.963 279.128 308.877 280.583 366.792C280.748 373.224 280.914 379.665 281.091 386.097C281.268 379.665 281.446 373.224 281.6 366.792C283.054 308.877 283.788 250.963 283.788 193.048C283.788 135.134 283.054 77.2193 281.6 19.3048C281.434 12.8728 281.268 6.43208 281.091 0Z" fill="url(#paint1_linear_294_12218)"/>
<path d="M261.329 36.1025C261.152 42.0967 260.975 48.0908 260.821 54.0849C259.366 108.049 258.633 162.005 258.633 215.96C258.633 269.916 259.366 323.88 260.821 377.836C260.986 383.83 261.152 389.824 261.329 395.827C261.507 389.833 261.684 383.839 261.838 377.836C263.293 323.872 264.026 269.916 264.026 215.96C264.026 162.005 263.293 108.041 261.838 54.0849C261.672 48.0908 261.507 42.0967 261.329 36.1025Z" fill="url(#paint2_linear_294_12218)"/>
<path d="M251.443 23.5645C251.265 29.3782 251.088 35.1834 250.934 40.9972C249.479 93.2954 248.746 145.594 248.746 197.883C248.746 250.173 249.479 302.48 250.934 354.769C251.1 360.583 251.265 366.388 251.443 372.202C251.62 366.388 251.797 360.583 251.951 354.769C253.406 302.471 254.139 250.173 254.139 197.883C254.139 145.594 253.406 93.2954 251.951 40.9972C251.786 35.1834 251.62 29.3782 251.443 23.5645Z" fill="url(#paint3_linear_294_12218)"/>
<path d="M241.568 73.793C241.39 78.997 241.213 84.1925 241.059 89.3966C239.604 136.199 238.871 183.001 238.871 229.795C238.871 276.588 239.604 323.399 241.059 370.201C241.225 375.405 241.39 380.601 241.568 385.805C241.745 380.601 241.922 375.405 242.076 370.201C243.531 323.399 244.264 276.597 244.264 229.795C244.264 182.992 243.531 136.19 242.076 89.3966C241.911 84.1925 241.745 78.997 241.568 73.793Z" fill="url(#paint4_linear_294_12218)"/>
<path d="M231.677 109.629C231.5 113.725 231.322 117.821 231.168 121.926C229.714 158.81 228.98 195.693 228.98 232.577C228.98 269.461 229.714 306.344 231.168 343.228C231.334 347.324 231.5 351.42 231.677 355.525C231.854 351.429 232.032 347.333 232.186 343.228C233.64 306.344 234.374 269.461 234.374 232.577C234.374 195.693 233.64 158.81 232.186 121.926C232.02 117.83 231.854 113.734 231.677 109.629Z" fill="url(#paint5_linear_294_12218)"/>
<path d="M221.802 73.793C221.625 78.1984 221.447 82.5952 221.293 87.0006C219.839 126.624 219.105 166.238 219.105 205.861C219.105 245.484 219.839 285.098 221.293 324.721C221.459 329.127 221.625 333.524 221.802 337.929C221.979 333.524 222.157 329.127 222.311 324.721C223.765 285.098 224.499 245.484 224.499 205.861C224.499 166.238 223.765 126.624 222.311 87.0006C222.145 82.5952 221.979 78.1984 221.802 73.793Z" fill="url(#paint6_linear_294_12218)"/>
<path d="M211.919 90.4707C211.742 94.7645 211.564 99.0497 211.411 103.343C209.956 141.953 209.223 180.554 209.223 219.164C209.223 257.774 209.956 296.375 211.411 334.984C211.576 339.278 211.742 343.563 211.919 347.857C212.097 343.563 212.274 339.278 212.428 334.984C213.882 296.375 214.616 257.774 214.616 219.164C214.616 180.554 213.882 141.953 212.428 103.343C212.262 99.0497 212.097 94.7645 211.919 90.4707Z" fill="url(#paint7_linear_294_12218)"/>
<path d="M202.04 116.979C201.863 120.148 201.685 123.326 201.532 126.495C200.077 155.048 199.344 183.602 199.344 212.155C199.344 240.709 200.077 269.263 201.532 297.816C201.697 300.985 201.863 304.163 202.04 307.331C202.218 304.163 202.395 300.985 202.549 297.816C204.004 269.263 204.737 240.709 204.737 212.155C204.737 183.602 204.004 155.048 202.549 126.495C202.383 123.326 202.218 120.148 202.04 116.979Z" fill="url(#paint8_linear_294_12218)"/>
<path d="M271.204 62.5176C271.027 67.6787 270.85 72.8398 270.696 77.9924C269.241 124.425 268.508 170.85 268.508 217.283C268.508 263.715 269.241 310.14 270.696 356.573C270.861 361.734 271.027 366.886 271.204 372.048C271.382 366.886 271.559 361.725 271.713 356.573C273.168 310.14 273.901 263.715 273.901 217.283C273.901 170.85 273.168 124.425 271.713 77.9924C271.547 72.8312 271.382 67.6787 271.204 62.5176Z" fill="url(#paint9_linear_294_12218)"/>
<path d="M320.622 62.5176C320.445 67.902 320.268 73.2864 320.114 78.6708C318.659 127.139 317.926 175.607 317.926 224.075C317.926 272.544 318.659 321.012 320.114 369.48C320.279 374.864 320.445 380.249 320.622 385.633C320.8 380.249 320.977 374.864 321.131 369.48C322.586 321.012 323.319 272.544 323.319 224.075C323.319 175.607 322.586 127.139 321.131 78.6708C320.965 73.2864 320.8 67.902 320.622 62.5176Z" fill="url(#paint10_linear_294_12218)"/>
<path d="M330.505 113.502C330.328 117.53 330.15 121.566 329.997 125.593C328.542 161.876 327.809 198.15 327.809 234.432C327.809 270.714 328.542 306.988 329.997 343.271C330.162 347.298 330.328 351.334 330.505 355.362C330.683 351.326 330.86 347.298 331.014 343.271C332.468 306.988 333.202 270.714 333.202 234.432C333.202 198.15 332.468 161.876 331.014 125.593C330.848 121.566 330.683 117.53 330.505 113.502Z" fill="url(#paint11_linear_294_12218)"/>
<path d="M340.38 104.064C340.203 107.963 340.025 111.871 339.872 115.769C338.417 150.892 337.684 186.016 337.684 221.139C337.684 256.262 338.417 291.385 339.872 326.508C340.037 330.415 340.203 334.314 340.38 338.213C340.558 334.314 340.735 330.407 340.889 326.508C342.343 291.385 343.077 256.262 343.077 221.139C343.077 186.016 342.343 150.892 340.889 115.769C340.723 111.871 340.558 107.963 340.38 104.064Z" fill="url(#paint12_linear_294_12218)"/>
<path d="M350.263 69.3613C350.086 73.8183 349.908 78.2752 349.754 82.7322C348.3 122.845 347.566 162.957 347.566 203.07C347.566 243.182 348.3 283.295 349.754 323.407C349.92 327.864 350.086 332.321 350.263 336.778C350.44 332.321 350.618 327.864 350.772 323.407C352.226 283.295 352.959 243.182 352.959 203.07C352.959 162.957 352.226 122.845 350.772 82.7322C350.606 78.2752 350.44 73.8183 350.263 69.3613Z" fill="url(#paint13_linear_294_12218)"/>
<path d="M360.142 137.633C359.964 140.364 359.787 143.103 359.633 145.843C358.179 170.463 357.445 195.084 357.445 219.704C357.445 244.325 358.179 268.945 359.633 293.566C359.799 296.305 359.964 299.036 360.142 301.775C360.319 299.036 360.497 296.305 360.65 293.566C362.105 268.945 362.838 244.325 362.838 219.704C362.838 195.084 362.105 170.463 360.65 145.843C360.485 143.112 360.319 140.372 360.142 137.633Z" fill="url(#paint14_linear_294_12218)"/>
<path d="M290.966 90.4707C290.789 95.6318 290.611 100.784 290.458 105.945C289.003 152.378 288.27 198.803 288.27 245.236C288.27 291.669 289.003 338.093 290.458 384.526C290.623 389.687 290.789 394.84 290.966 400.001C291.143 394.84 291.321 389.687 291.475 384.526C292.929 338.093 293.663 291.669 293.663 245.236C293.663 198.803 292.929 152.378 291.475 105.945C291.309 100.784 291.143 95.6318 290.966 90.4707Z" fill="url(#paint15_linear_294_12218)"/>
<path d="M300.853 36.1025C300.675 41.9335 300.498 47.7559 300.344 53.5868C298.89 106.04 298.156 158.492 298.156 210.945C298.156 263.398 298.89 315.851 300.344 368.304C300.51 374.135 300.675 379.957 300.853 385.788C301.03 379.957 301.208 374.135 301.361 368.304C302.816 315.851 303.549 263.398 303.549 210.945C303.549 158.492 302.816 106.04 301.361 53.5868C301.196 47.7559 301.03 41.9335 300.853 36.1025Z" fill="url(#paint16_linear_294_12218)"/>
<path d="M310.739 90.4707C310.562 95.1681 310.385 99.8655 310.231 104.554C308.776 146.814 308.043 189.073 308.043 231.332C308.043 273.592 308.776 315.851 310.231 358.111C310.397 362.808 310.562 367.505 310.739 372.194C310.917 367.497 311.094 362.799 311.248 358.111C312.703 315.851 313.436 273.592 313.436 231.332C313.436 189.073 312.703 146.814 311.248 104.554C311.082 99.8569 310.917 95.1595 310.739 90.4707Z" fill="url(#paint17_linear_294_12218)"/>
<path d="M200.477 171.323C200.271 171.409 200.066 171.494 199.861 171.58C155.345 190.361 155.581 212.933 200.394 231.714C245.206 250.495 317.882 250.495 362.398 231.714C406.915 212.933 406.678 190.361 361.866 171.58C361.585 171.462 361.303 171.346 361.02 171.229V152.336C370.19 154.775 378.868 157.671 386.868 161.025C445.553 185.629 445.86 225.655 387.554 250.259C329.247 274.862 234.065 274.862 175.38 250.259C116.695 225.655 116.387 185.629 174.693 161.025C182.661 157.663 191.319 154.762 200.477 152.318V171.323Z" fill="url(#paint18_linear_294_12218)"/>
<path d="M131.173 205.337C131.114 221.602 145.862 237.884 175.393 250.267C177.279 251.058 179.203 251.822 181.161 252.562C195.093 257.824 210.808 261.8 227.431 264.491L227.432 264.489C239.85 266.501 252.778 267.789 265.854 268.367L268.471 268.473L271.276 268.565C285.307 268.971 299.443 268.553 313.237 267.305L315.79 267.065C342.137 264.49 367.117 258.886 387.568 250.259C398.958 245.45 408.111 240.057 415.03 234.303C421.795 228.678 426.42 222.701 428.915 216.604L429.177 215.944C429.253 215.747 429.324 215.549 429.396 215.352C430.512 212.243 431.078 209.105 431.09 205.966L431.008 226.953C431.007 227.187 431.002 227.421 430.995 227.655C430.992 227.759 430.987 227.863 430.982 227.966C430.977 228.099 430.971 228.231 430.964 228.363C430.958 228.469 430.95 228.576 430.943 228.682C430.934 228.815 430.925 228.948 430.914 229.081C430.906 229.182 430.896 229.282 430.887 229.383C430.874 229.517 430.86 229.65 430.845 229.784C430.832 229.904 430.818 230.024 430.803 230.144C430.793 230.229 430.781 230.314 430.77 230.399C430.748 230.561 430.727 230.723 430.703 230.885C430.69 230.971 430.675 231.058 430.661 231.144C430.389 232.839 429.954 234.529 429.359 236.211C429.336 236.276 429.312 236.341 429.288 236.406C429.236 236.551 429.183 236.696 429.129 236.841C429.091 236.941 429.052 237.041 429.013 237.141C428.96 237.279 428.905 237.416 428.849 237.554C428.843 237.569 428.838 237.585 428.832 237.601C428.803 237.67 428.773 237.74 428.744 237.809C428.655 238.024 428.561 238.238 428.467 238.452C428.41 238.58 428.354 238.708 428.296 238.836C428.25 238.936 428.203 239.036 428.156 239.136C428.112 239.231 428.067 239.326 428.021 239.42C425.693 244.267 422.004 249.018 416.951 253.565C416.875 253.633 416.798 253.701 416.722 253.769C416.564 253.91 416.405 254.051 416.244 254.192C416.165 254.261 416.085 254.33 416.005 254.399C415.798 254.578 415.589 254.757 415.378 254.936C415.235 255.057 415.093 255.179 414.948 255.3L414.861 255.37C414.792 255.428 414.723 255.484 414.653 255.541C414.463 255.698 414.27 255.855 414.076 256.011C414.004 256.069 413.932 256.127 413.86 256.185C413.694 256.317 413.527 256.45 413.359 256.582C413.25 256.667 413.141 256.753 413.032 256.838C412.859 256.972 412.684 257.106 412.509 257.24C412.323 257.381 412.137 257.523 411.949 257.664C411.773 257.796 411.596 257.928 411.417 258.059C411.332 258.122 411.246 258.185 411.16 258.249C410.946 258.405 410.73 258.561 410.513 258.716C410.449 258.762 410.386 258.808 410.322 258.853C409.739 259.269 409.144 259.682 408.537 260.093C408.468 260.139 408.4 260.185 408.331 260.231C408.097 260.389 407.861 260.546 407.623 260.703C407.522 260.77 407.421 260.836 407.319 260.902C407.095 261.049 406.868 261.195 406.64 261.341C406.565 261.39 406.49 261.438 406.414 261.486C401.355 264.714 395.516 267.786 388.895 270.652C388.862 270.666 388.828 270.681 388.794 270.695C388.361 270.883 387.925 271.07 387.485 271.256C387.058 271.436 386.627 271.614 386.196 271.792C386.122 271.822 386.047 271.853 385.972 271.884C384.679 272.414 383.368 272.933 382.041 273.44C381.963 273.47 381.886 273.5 381.808 273.529C381.545 273.629 381.28 273.728 381.015 273.827C380.624 273.974 380.231 274.119 379.837 274.264C379.608 274.348 379.38 274.433 379.15 274.516C378.573 274.725 377.993 274.932 377.41 275.137C377.236 275.198 377.061 275.259 376.886 275.32C376.452 275.471 376.017 275.62 375.58 275.769C375.332 275.854 375.084 275.939 374.835 276.022C374.259 276.216 373.68 276.407 373.099 276.597C372.907 276.659 372.714 276.721 372.521 276.783C372.115 276.914 371.706 277.044 371.297 277.173C370.995 277.268 370.692 277.364 370.388 277.458C369.93 277.6 369.471 277.742 369.01 277.882C368.703 277.975 368.396 278.067 368.087 278.159C367.68 278.281 367.271 278.402 366.861 278.522C366.538 278.616 366.215 278.709 365.891 278.802C365.508 278.912 365.124 279.021 364.739 279.13C364.443 279.213 364.146 279.296 363.849 279.379C363.318 279.526 362.786 279.671 362.253 279.815C361.964 279.892 361.676 279.969 361.386 280.046C360.997 280.15 360.606 280.252 360.215 280.354C359.934 280.427 359.652 280.501 359.37 280.573C358.774 280.725 358.177 280.875 357.577 281.024C357.296 281.094 357.013 281.162 356.731 281.231C356.326 281.33 355.921 281.428 355.514 281.525C355.251 281.588 354.987 281.651 354.722 281.713C354.093 281.861 353.463 282.008 352.83 282.152C352.572 282.211 352.312 282.268 352.053 282.326C351.651 282.417 351.248 282.506 350.845 282.595C350.51 282.668 350.175 282.741 349.839 282.814C349.334 282.922 348.828 283.03 348.321 283.136C348.014 283.2 347.706 283.263 347.398 283.326C346.902 283.428 346.405 283.529 345.906 283.629C345.633 283.683 345.36 283.738 345.086 283.791C344.679 283.871 344.271 283.95 343.863 284.029C343.31 284.135 342.756 284.239 342.201 284.342C341.85 284.408 341.498 284.474 341.145 284.538C340.785 284.604 340.423 284.668 340.061 284.732C339.697 284.797 339.332 284.861 338.967 284.924C338.64 284.981 338.313 285.039 337.985 285.095C337.356 285.202 336.726 285.307 336.094 285.411C335.773 285.463 335.451 285.514 335.129 285.566C334.761 285.625 334.393 285.684 334.024 285.741C333.67 285.797 333.317 285.852 332.962 285.907C332.39 285.994 331.816 286.08 331.242 286.165C330.866 286.22 330.489 286.274 330.112 286.328C329.694 286.388 329.276 286.447 328.858 286.505C328.583 286.544 328.307 286.583 328.032 286.62C327.315 286.718 326.596 286.814 325.876 286.907C325.807 286.916 325.739 286.925 325.67 286.934C325.001 287.02 324.33 287.103 323.658 287.185C323.425 287.214 323.192 287.242 322.959 287.27C322.361 287.342 321.761 287.413 321.161 287.481C320.934 287.507 320.708 287.534 320.481 287.559C319.858 287.629 319.235 287.697 318.611 287.764C318.353 287.792 318.094 287.818 317.836 287.845C317.15 287.917 316.462 287.987 315.774 288.054C315.747 288.057 315.719 288.06 315.691 288.063C314.933 288.137 314.173 288.207 313.412 288.276C313.326 288.284 313.24 288.294 313.154 288.302L312.7 288.34C311.076 288.484 309.449 288.617 307.816 288.739C307.684 288.748 307.551 288.758 307.418 288.768C305.668 288.896 303.913 289.011 302.155 289.113C302.094 289.116 302.034 289.12 301.974 289.123C300.253 289.222 298.528 289.308 296.802 289.382C296.613 289.39 296.424 289.398 296.236 289.406C295.421 289.44 294.607 289.47 293.792 289.498C293.663 289.503 293.535 289.507 293.406 289.511C292.715 289.534 292.024 289.554 291.333 289.573C291.097 289.579 290.862 289.587 290.626 289.593C289.925 289.611 289.223 289.626 288.522 289.639C288.162 289.646 287.802 289.653 287.442 289.659C287.019 289.665 286.596 289.672 286.174 289.677C285.461 289.686 284.748 289.693 284.036 289.698C283.73 289.7 283.424 289.702 283.119 289.704C282.635 289.706 282.152 289.707 281.668 289.707C281.429 289.707 281.19 289.707 280.951 289.706C278.222 289.702 275.493 289.667 272.768 289.601C272.605 289.597 272.443 289.592 272.28 289.588C271.918 289.579 271.556 289.572 271.194 289.561L268.388 289.47L267.194 289.421C267.149 289.419 267.104 289.417 267.059 289.415C266.268 289.383 265.478 289.349 264.689 289.311C264.306 289.293 263.923 289.275 263.541 289.256C263.105 289.234 262.67 289.211 262.234 289.187C261.979 289.173 261.723 289.159 261.468 289.144C259.99 289.061 258.514 288.968 257.042 288.867C256.72 288.845 256.398 288.823 256.076 288.8C255.64 288.768 255.204 288.736 254.769 288.703C254.43 288.678 254.091 288.651 253.752 288.624C252.98 288.564 252.209 288.501 251.439 288.435C251.295 288.423 251.152 288.411 251.008 288.398C243.848 287.778 236.772 286.941 229.842 285.878L227.35 285.485L225.576 285.193C207.282 282.121 190.125 277.47 175.299 271.256C155.004 262.748 141.691 252.393 135.371 241.468C135.228 241.219 135.089 240.971 134.952 240.722C134.679 240.224 134.421 239.725 134.177 239.225C132.104 234.976 131.074 230.654 131.09 226.334L131.173 205.337Z" fill="url(#paint19_linear_294_12218)"/>
<defs>
<linearGradient id="paint0_linear_294_12218" x1="135.167" y1="194.783" x2="428.11" y2="194.783" gradientUnits="userSpaceOnUse">
<stop stop-color="#5F2EC3"/>
<stop offset="1" stop-color="#B072CA"/>
</linearGradient>
<linearGradient id="paint1_linear_294_12218" x1="281.104" y1="92.149" x2="281.104" y2="293.949" gradientUnits="userSpaceOnUse">
<stop stop-color="#B072CA"/>
<stop offset="1" stop-color="#5F2EC3"/>
</linearGradient>
<linearGradient id="paint2_linear_294_12218" x1="261.342" y1="121.957" x2="261.342" y2="309.973" gradientUnits="userSpaceOnUse">
<stop stop-color="#B072CA"/>
<stop offset="1" stop-color="#5F2EC3"/>
</linearGradient>
<linearGradient id="paint3_linear_294_12218" x1="251.455" y1="106.773" x2="251.455" y2="288.995" gradientUnits="userSpaceOnUse">
<stop stop-color="#B072CA"/>
<stop offset="1" stop-color="#5F2EC3"/>
</linearGradient>
<linearGradient id="paint4_linear_294_12218" x1="241.58" y1="148.26" x2="241.58" y2="311.339" gradientUnits="userSpaceOnUse">
<stop stop-color="#B072CA"/>
<stop offset="1" stop-color="#5F2EC3"/>
</linearGradient>
<linearGradient id="paint5_linear_294_12218" x1="231.69" y1="168.316" x2="231.69" y2="296.838" gradientUnits="userSpaceOnUse">
<stop stop-color="#B072CA"/>
<stop offset="1" stop-color="#5F2EC3"/>
</linearGradient>
<linearGradient id="paint6_linear_294_12218" x1="221.815" y1="136.834" x2="221.815" y2="274.889" gradientUnits="userSpaceOnUse">
<stop stop-color="#B072CA"/>
<stop offset="1" stop-color="#5F2EC3"/>
</linearGradient>
<linearGradient id="paint7_linear_294_12218" x1="211.932" y1="151.901" x2="211.932" y2="286.428" gradientUnits="userSpaceOnUse">
<stop stop-color="#B072CA"/>
<stop offset="1" stop-color="#5F2EC3"/>
</linearGradient>
<linearGradient id="paint8_linear_294_12218" x1="202.053" y1="162.41" x2="202.053" y2="261.901" gradientUnits="userSpaceOnUse">
<stop stop-color="#B072CA"/>
<stop offset="1" stop-color="#5F2EC3"/>
</linearGradient>
<linearGradient id="paint9_linear_294_12218" x1="271.217" y1="136.393" x2="271.217" y2="298.174" gradientUnits="userSpaceOnUse">
<stop stop-color="#B072CA"/>
<stop offset="1" stop-color="#5F2EC3"/>
</linearGradient>
<linearGradient id="paint10_linear_294_12218" x1="320.635" y1="139.635" x2="320.635" y2="308.517" gradientUnits="userSpaceOnUse">
<stop stop-color="#B072CA"/>
<stop offset="1" stop-color="#5F2EC3"/>
</linearGradient>
<linearGradient id="paint11_linear_294_12218" x1="330.518" y1="171.226" x2="330.518" y2="297.639" gradientUnits="userSpaceOnUse">
<stop stop-color="#B072CA"/>
<stop offset="1" stop-color="#5F2EC3"/>
</linearGradient>
<linearGradient id="paint12_linear_294_12218" x1="340.393" y1="159.948" x2="340.393" y2="282.33" gradientUnits="userSpaceOnUse">
<stop stop-color="#B072CA"/>
<stop offset="1" stop-color="#5F2EC3"/>
</linearGradient>
<linearGradient id="paint13_linear_294_12218" x1="350.276" y1="133.185" x2="350.276" y2="272.955" gradientUnits="userSpaceOnUse">
<stop stop-color="#B072CA"/>
<stop offset="1" stop-color="#5F2EC3"/>
</linearGradient>
<linearGradient id="paint14_linear_294_12218" x1="360.155" y1="176.808" x2="360.155" y2="262.6" gradientUnits="userSpaceOnUse">
<stop stop-color="#B072CA"/>
<stop offset="1" stop-color="#5F2EC3"/>
</linearGradient>
<linearGradient id="paint15_linear_294_12218" x1="290.979" y1="164.346" x2="290.979" y2="326.127" gradientUnits="userSpaceOnUse">
<stop stop-color="#B072CA"/>
<stop offset="1" stop-color="#5F2EC3"/>
</linearGradient>
<linearGradient id="paint16_linear_294_12218" x1="300.866" y1="119.561" x2="300.866" y2="302.33" gradientUnits="userSpaceOnUse">
<stop stop-color="#B072CA"/>
<stop offset="1" stop-color="#5F2EC3"/>
</linearGradient>
<linearGradient id="paint17_linear_294_12218" x1="310.752" y1="157.709" x2="310.752" y2="304.957" gradientUnits="userSpaceOnUse">
<stop stop-color="#B072CA"/>
<stop offset="1" stop-color="#5F2EC3"/>
</linearGradient>
<linearGradient id="paint18_linear_294_12218" x1="90.077" y1="210.515" x2="473.596" y2="210.515" gradientUnits="userSpaceOnUse">
<stop stop-color="#B072CA"/>
<stop offset="1" stop-color="#5F2EC3"/>
</linearGradient>
<linearGradient id="paint19_linear_294_12218" x1="89.9917" y1="247.522" x2="473.613" y2="247.522" gradientUnits="userSpaceOnUse">
<stop stop-color="#5F2EC3"/>
<stop offset="1" stop-color="#B072CA"/>
</linearGradient>
</defs>
</svg>
