<svg width="1510" height="400" viewBox="0 0 1510 400" fill="none" xmlns="http://www.w3.org/2000/svg">
<path d="M463.319 163.678C463.319 171.702 456.814 178.207 448.79 178.207H431.84V236.322H417.312V178.207H400.361C392.337 178.207 385.832 171.702 385.832 163.678H463.319ZM564.808 163.678C564.808 171.702 558.303 178.207 550.278 178.207H509.85C505.431 178.207 501.85 181.789 501.85 186.207V192.735H549.543V207.265H501.85V213.793C501.85 218.211 505.431 221.793 509.85 221.793H550.278C558.303 221.793 564.808 228.298 564.808 236.322H511.32C498.065 236.322 487.32 225.577 487.32 212.322V187.678C487.32 174.423 498.065 163.678 511.32 163.678H564.808ZM659.031 163.678C659.031 171.702 652.526 178.207 644.502 178.207H610.602C606.59 178.207 603.338 181.459 603.338 185.471V214.528C603.338 218.54 606.59 221.793 610.602 221.793H644.502C652.526 221.793 659.031 228.298 659.031 236.322H610.602C598.566 236.322 588.809 226.564 588.809 214.528V185.471C588.809 173.435 598.566 163.678 610.602 163.678H659.031ZM697.561 192.735H745.989V163.678H760.519V236.322H745.989V207.265H697.561V236.322H683.031V163.678H697.561V192.735ZM788.275 163.678C794.818 163.678 801.076 166.349 805.603 171.072L847.478 214.768V163.678H862.007V236.322H858.252C851.71 236.322 845.451 233.651 840.924 228.928L799.049 185.231V236.322H784.52V163.678H788.275ZM941.702 163.678C953.738 163.678 963.495 173.435 963.495 185.471V214.528C963.495 226.564 953.737 236.322 941.701 236.322H907.801C895.765 236.322 886.008 226.564 886.008 214.528V185.471C886.008 173.435 895.765 163.678 907.801 163.678H941.702ZM1064.98 163.678C1064.98 171.702 1058.48 178.207 1050.45 178.207H1033.5V236.322H1018.98V178.207H1002.03C994.001 178.207 987.496 171.702 987.496 163.678H1064.98ZM1103.51 192.735H1151.94V163.678H1166.47V236.322H1151.94V207.265H1103.51V236.322H1088.98V163.678H1103.51V192.735ZM1267.96 163.678C1267.96 171.702 1261.45 178.207 1253.43 178.207H1213C1208.58 178.207 1205 181.789 1205 186.207V192.735H1252.7V207.265H1205V213.793C1205 218.211 1208.58 221.793 1213 221.793H1253.43C1261.45 221.793 1267.96 228.298 1267.96 236.322H1214.47C1201.22 236.322 1190.47 225.577 1190.47 212.322V187.678C1190.47 174.423 1201.22 163.678 1214.47 163.678H1267.96ZM1306.49 236.322H1291.96V163.678H1306.49V236.322ZM1405.27 163.678C1405.27 171.702 1398.76 178.207 1390.74 178.207H1352.28C1348.27 178.207 1345.02 181.459 1345.02 185.471C1345.02 189.483 1348.27 192.735 1352.28 192.735H1386.18C1398.22 192.736 1407.98 202.493 1407.98 214.528C1407.98 226.564 1398.22 236.322 1386.18 236.322H1332.9C1332.9 228.298 1339.4 221.793 1347.43 221.793H1386.18C1390.19 221.793 1393.45 218.54 1393.45 214.528C1393.45 210.517 1390.19 207.265 1386.18 207.265H1352.28C1340.25 207.264 1330.49 197.507 1330.49 185.471C1330.49 173.435 1340.25 163.678 1352.28 163.678H1405.27ZM1509.46 236.322H1494.93V186.059L1470.72 210.273L1446.51 186.059V236.322H1431.98V163.678C1440.11 163.678 1447.9 166.907 1453.65 172.654L1470.72 189.726L1487.79 172.654C1493.54 166.907 1501.34 163.678 1509.46 163.678V236.322ZM907.801 178.207C903.789 178.207 900.537 181.459 900.537 185.471V214.528C900.537 218.54 903.789 221.793 907.801 221.793H941.701C945.713 221.793 948.966 218.54 948.966 214.528V185.471C948.966 181.459 945.714 178.207 941.702 178.207H907.801Z" fill="#8D52E0"/>
<path d="M229.051 162.861C229.632 163.095 230.21 163.331 230.782 163.571C253.336 173.026 264.595 185.461 264.548 197.879L264.466 226.875C264.513 214.457 253.253 202.022 230.699 192.567C230.154 192.339 229.604 192.114 229.051 191.892V162.861ZM47.7256 204.754C42.5574 209.048 39.033 213.607 37.1289 218.262V218.271C36.0291 220.958 35.4728 223.681 35.4609 226.403L35.5439 197.406C35.544 194.684 36.1121 191.962 37.2119 189.274V189.265C39.1161 184.61 42.6523 180.05 47.8086 175.757L47.7256 204.754ZM70.9492 191.653C70.1909 191.956 69.4393 192.263 68.6963 192.576C60.0036 196.243 53.0132 200.366 47.7266 204.763L47.8096 175.766C53.0961 171.369 60.0859 167.255 68.7783 163.58C69.4944 163.278 70.2188 162.983 70.9492 162.69V191.653Z" fill="url(#paint0_linear_294_12217)"/>
<path d="M150.001 0C149.824 6.43208 149.646 12.8728 149.493 19.3048C148.038 77.2193 147.305 135.134 147.305 193.048C147.305 250.963 148.038 308.877 149.493 366.792C149.658 373.224 149.824 379.665 150.001 386.097C150.179 379.665 150.356 373.224 150.51 366.792C151.964 308.877 152.698 250.963 152.698 193.048C152.698 135.134 151.964 77.2193 150.51 19.3048C150.344 12.8728 150.179 6.43208 150.001 0Z" fill="url(#paint1_linear_294_12217)"/>
<path d="M130.24 36.1025C130.062 42.0967 129.885 48.0908 129.731 54.0849C128.276 108.049 127.543 162.005 127.543 215.96C127.543 269.916 128.276 323.88 129.731 377.836C129.897 383.83 130.062 389.824 130.24 395.827C130.417 389.833 130.594 383.839 130.748 377.836C132.203 323.872 132.936 269.916 132.936 215.96C132.936 162.005 132.203 108.041 130.748 54.0849C130.582 48.0908 130.417 42.0967 130.24 36.1025Z" fill="url(#paint2_linear_294_12217)"/>
<path d="M120.353 23.5645C120.175 29.3782 119.998 35.1834 119.844 40.9972C118.39 93.2954 117.656 145.594 117.656 197.883C117.656 250.173 118.39 302.48 119.844 354.769C120.01 360.583 120.175 366.388 120.353 372.202C120.53 366.388 120.708 360.583 120.861 354.769C122.316 302.471 123.049 250.173 123.049 197.883C123.049 145.594 122.316 93.2954 120.861 40.9972C120.696 35.1834 120.53 29.3782 120.353 23.5645Z" fill="url(#paint3_linear_294_12217)"/>
<path d="M110.478 73.793C110.3 78.997 110.123 84.1925 109.969 89.3966C108.515 136.199 107.781 183.001 107.781 229.795C107.781 276.588 108.515 323.399 109.969 370.201C110.135 375.405 110.3 380.601 110.478 385.805C110.655 380.601 110.833 375.405 110.986 370.201C112.441 323.399 113.174 276.597 113.174 229.795C113.174 182.992 112.441 136.19 110.986 89.3966C110.821 84.1925 110.655 78.997 110.478 73.793Z" fill="url(#paint4_linear_294_12217)"/>
<path d="M100.587 109.629C100.41 113.725 100.232 117.821 100.079 121.926C98.6239 158.81 97.8906 195.693 97.8906 232.577C97.8906 269.461 98.6239 306.344 100.079 343.228C100.244 347.324 100.41 351.42 100.587 355.525C100.765 351.429 100.942 347.333 101.096 343.228C102.55 306.344 103.284 269.461 103.284 232.577C103.284 195.693 102.55 158.81 101.096 121.926C100.93 117.83 100.765 113.734 100.587 109.629Z" fill="url(#paint5_linear_294_12217)"/>
<path d="M90.7122 73.793C90.5348 78.1984 90.3573 82.5952 90.2036 87.0006C88.7489 126.624 88.0156 166.238 88.0156 205.861C88.0156 245.484 88.7489 285.098 90.2036 324.721C90.3692 329.127 90.5348 333.524 90.7122 337.929C90.8896 333.524 91.067 329.127 91.2207 324.721C92.6754 285.098 93.4087 245.484 93.4087 205.861C93.4087 166.238 92.6754 126.624 91.2207 87.0006C91.0551 82.5952 90.8896 78.1984 90.7122 73.793Z" fill="url(#paint6_linear_294_12217)"/>
<path d="M80.8293 90.4707C80.6519 94.7645 80.4745 99.0497 80.3208 103.343C78.8661 141.953 78.1328 180.554 78.1328 219.164C78.1328 257.774 78.8661 296.375 80.3208 334.984C80.4864 339.278 80.6519 343.563 80.8293 347.857C81.0067 343.563 81.1841 339.278 81.3379 334.984C82.7926 296.375 83.5259 257.774 83.5259 219.164C83.5259 180.554 82.7926 141.953 81.3379 103.343C81.1723 99.0497 81.0067 94.7645 80.8293 90.4707Z" fill="url(#paint7_linear_294_12217)"/>
<path d="M70.9504 116.979C70.773 120.148 70.5956 123.326 70.4419 126.495C68.9872 155.048 68.2539 183.602 68.2539 212.155C68.2539 240.709 68.9872 269.263 70.4419 297.816C70.6075 300.985 70.773 304.163 70.9504 307.331C71.1278 304.163 71.3052 300.985 71.459 297.816C72.9137 269.263 73.647 240.709 73.647 212.155C73.647 183.602 72.9137 155.048 71.459 126.495C71.2934 123.326 71.1278 120.148 70.9504 116.979Z" fill="url(#paint8_linear_294_12217)"/>
<path d="M140.114 62.5176C139.937 67.6787 139.76 72.8398 139.606 77.9924C138.151 124.425 137.418 170.85 137.418 217.283C137.418 263.715 138.151 310.14 139.606 356.573C139.772 361.734 139.937 366.886 140.114 372.048C140.292 366.886 140.469 361.725 140.623 356.573C142.078 310.14 142.811 263.715 142.811 217.283C142.811 170.85 142.078 124.425 140.623 77.9924C140.457 72.8312 140.292 67.6787 140.114 62.5176Z" fill="url(#paint9_linear_294_12217)"/>
<path d="M189.532 62.5176C189.355 67.902 189.178 73.2864 189.024 78.6708C187.569 127.139 186.836 175.607 186.836 224.075C186.836 272.544 187.569 321.012 189.024 369.48C189.189 374.864 189.355 380.249 189.532 385.633C189.71 380.249 189.887 374.864 190.041 369.48C191.496 321.012 192.229 272.544 192.229 224.075C192.229 175.607 191.496 127.139 190.041 78.6708C189.875 73.2864 189.71 67.902 189.532 62.5176Z" fill="url(#paint10_linear_294_12217)"/>
<path d="M199.415 113.502C199.238 117.53 199.06 121.566 198.907 125.593C197.452 161.876 196.719 198.15 196.719 234.432C196.719 270.714 197.452 306.988 198.907 343.271C199.072 347.298 199.238 351.334 199.415 355.362C199.593 351.326 199.77 347.298 199.924 343.271C201.379 306.988 202.112 270.714 202.112 234.432C202.112 198.15 201.379 161.876 199.924 125.593C199.758 121.566 199.593 117.53 199.415 113.502Z" fill="url(#paint11_linear_294_12217)"/>
<path d="M209.29 104.064C209.113 107.963 208.935 111.871 208.782 115.769C207.327 150.892 206.594 186.016 206.594 221.139C206.594 256.262 207.327 291.385 208.782 326.508C208.947 330.415 209.113 334.314 209.29 338.213C209.468 334.314 209.645 330.407 209.799 326.508C211.254 291.385 211.987 256.262 211.987 221.139C211.987 186.016 211.254 150.892 209.799 115.769C209.633 111.871 209.468 107.963 209.29 104.064Z" fill="url(#paint12_linear_294_12217)"/>
<path d="M219.173 69.3613C218.996 73.8183 218.818 78.2752 218.665 82.7322C217.21 122.845 216.477 162.957 216.477 203.07C216.477 243.182 217.21 283.295 218.665 323.407C218.83 327.864 218.996 332.321 219.173 336.778C219.351 332.321 219.528 327.864 219.682 323.407C221.136 283.295 221.87 243.182 221.87 203.07C221.87 162.957 221.136 122.845 219.682 82.7322C219.516 78.2752 219.351 73.8183 219.173 69.3613Z" fill="url(#paint13_linear_294_12217)"/>
<path d="M229.052 137.633C228.875 140.364 228.697 143.103 228.543 145.843C227.089 170.463 226.355 195.084 226.355 219.704C226.355 244.325 227.089 268.945 228.543 293.566C228.709 296.305 228.875 299.036 229.052 301.775C229.229 299.036 229.407 296.305 229.561 293.566C231.015 268.945 231.749 244.325 231.749 219.704C231.749 195.084 231.015 170.463 229.561 145.843C229.395 143.112 229.229 140.372 229.052 137.633Z" fill="url(#paint14_linear_294_12217)"/>
<path d="M159.876 90.4707C159.699 95.6318 159.521 100.784 159.368 105.945C157.913 152.378 157.18 198.803 157.18 245.236C157.18 291.669 157.913 338.093 159.368 384.526C159.533 389.687 159.699 394.84 159.876 400.001C160.054 394.84 160.231 389.687 160.385 384.526C161.839 338.093 162.573 291.669 162.573 245.236C162.573 198.803 161.839 152.378 160.385 105.945C160.219 100.784 160.054 95.6318 159.876 90.4707Z" fill="url(#paint15_linear_294_12217)"/>
<path d="M169.763 36.1025C169.586 41.9335 169.408 47.7559 169.254 53.5868C167.8 106.04 167.066 158.492 167.066 210.945C167.066 263.398 167.8 315.851 169.254 368.304C169.42 374.135 169.586 379.957 169.763 385.788C169.94 379.957 170.118 374.135 170.272 368.304C171.726 315.851 172.459 263.398 172.459 210.945C172.459 158.492 171.726 106.04 170.272 53.5868C170.106 47.7559 169.94 41.9335 169.763 36.1025Z" fill="url(#paint16_linear_294_12217)"/>
<path d="M179.65 90.4707C179.472 95.1681 179.295 99.8655 179.141 104.554C177.686 146.814 176.953 189.073 176.953 231.332C176.953 273.592 177.686 315.851 179.141 358.111C179.307 362.808 179.472 367.505 179.65 372.194C179.827 367.497 180.004 362.799 180.158 358.111C181.613 315.851 182.346 273.592 182.346 231.332C182.346 189.073 181.613 146.814 180.158 104.554C179.993 99.8569 179.827 95.1595 179.65 90.4707Z" fill="url(#paint17_linear_294_12217)"/>
<path d="M69.3867 171.323C69.1812 171.409 68.9759 171.494 68.7715 171.58C24.2551 190.361 24.4917 212.933 69.3037 231.714C114.116 250.495 186.792 250.495 231.309 231.714C275.825 212.933 275.588 190.361 230.776 171.58C230.495 171.462 230.213 171.346 229.93 171.229V152.336C239.1 154.775 247.778 157.671 255.778 161.025C314.463 185.629 314.77 225.655 256.464 250.259C198.157 274.862 102.975 274.862 44.29 250.259C-14.3949 225.655 -14.7029 185.629 43.6035 161.025C51.5715 157.663 60.2287 154.762 69.3867 152.318V171.323Z" fill="url(#paint18_linear_294_12217)"/>
<path d="M0.0833348 205.337C0.0242007 221.602 14.7722 237.884 44.3036 250.267C46.1893 251.058 48.1133 251.822 50.0716 252.562C64.0032 257.824 79.7182 261.8 96.3408 264.491L96.3419 264.489C108.76 266.501 121.688 267.789 134.764 268.367L137.381 268.473L140.186 268.565C154.217 268.971 168.354 268.553 182.147 267.305L184.701 267.065C211.048 264.49 236.027 258.886 256.478 250.259C267.868 245.45 277.021 240.057 283.94 234.303C290.705 228.678 295.33 222.701 297.825 216.604L298.087 215.944C298.163 215.747 298.235 215.549 298.306 215.352C299.422 212.243 299.988 209.105 300 205.966L299.918 226.953C299.917 227.187 299.912 227.421 299.905 227.655C299.902 227.759 299.897 227.863 299.893 227.966C299.887 228.099 299.882 228.231 299.874 228.363C299.868 228.469 299.861 228.576 299.853 228.682C299.844 228.815 299.836 228.948 299.824 229.081C299.816 229.182 299.806 229.282 299.797 229.383C299.784 229.517 299.77 229.65 299.755 229.784C299.742 229.904 299.728 230.024 299.714 230.144C299.703 230.229 299.691 230.314 299.68 230.399C299.659 230.561 299.638 230.723 299.613 230.885C299.6 230.971 299.585 231.058 299.572 231.144C299.299 232.839 298.864 234.529 298.269 236.211C298.246 236.276 298.222 236.341 298.198 236.406C298.146 236.551 298.094 236.696 298.039 236.841C298.001 236.941 297.962 237.041 297.923 237.141C297.87 237.279 297.815 237.416 297.759 237.554C297.753 237.569 297.748 237.585 297.742 237.601C297.714 237.67 297.683 237.74 297.654 237.809C297.565 238.024 297.472 238.238 297.377 238.452C297.32 238.58 297.265 238.708 297.206 238.836C297.16 238.936 297.113 239.036 297.066 239.136C297.022 239.231 296.977 239.326 296.931 239.42C294.603 244.267 290.914 249.018 285.861 253.565C285.785 253.633 285.708 253.701 285.632 253.769C285.474 253.91 285.315 254.051 285.154 254.192C285.075 254.261 284.995 254.33 284.915 254.399C284.708 254.578 284.499 254.757 284.288 254.936C284.145 255.057 284.003 255.179 283.858 255.3L283.772 255.37C283.703 255.428 283.633 255.484 283.564 255.541C283.373 255.698 283.18 255.855 282.986 256.011C282.914 256.069 282.842 256.127 282.77 256.185C282.604 256.317 282.437 256.45 282.269 256.582C282.16 256.667 282.052 256.753 281.942 256.838C281.769 256.972 281.594 257.106 281.419 257.24C281.233 257.381 281.047 257.523 280.859 257.664C280.683 257.796 280.506 257.928 280.327 258.059C280.242 258.122 280.156 258.185 280.07 258.249C279.856 258.405 279.64 258.561 279.423 258.716C279.36 258.762 279.296 258.808 279.232 258.853C278.65 259.269 278.054 259.682 277.447 260.093C277.379 260.139 277.31 260.185 277.241 260.231C277.007 260.389 276.771 260.546 276.533 260.703C276.433 260.77 276.331 260.836 276.23 260.902C276.005 261.049 275.778 261.195 275.55 261.341C275.475 261.39 275.4 261.438 275.324 261.486C270.265 264.714 264.426 267.786 257.806 270.652C257.772 270.666 257.738 270.681 257.704 270.695C257.271 270.883 256.835 271.07 256.395 271.256C255.968 271.436 255.538 271.614 255.106 271.792C255.032 271.822 254.957 271.853 254.882 271.884C253.589 272.414 252.278 272.933 250.951 273.44C250.873 273.47 250.796 273.5 250.719 273.529C250.455 273.629 250.19 273.728 249.925 273.827C249.534 273.974 249.141 274.119 248.747 274.264C248.518 274.348 248.29 274.433 248.06 274.516C247.483 274.725 246.903 274.932 246.32 275.137C246.146 275.198 245.971 275.259 245.796 275.32C245.362 275.471 244.927 275.62 244.49 275.769C244.242 275.854 243.994 275.939 243.745 276.022C243.169 276.216 242.59 276.407 242.009 276.597C241.817 276.659 241.624 276.721 241.432 276.783C241.025 276.914 240.616 277.044 240.207 277.173C239.905 277.268 239.602 277.364 239.298 277.458C238.84 277.6 238.381 277.742 237.92 277.882C237.613 277.975 237.306 278.067 236.998 278.159C236.59 278.281 236.181 278.402 235.771 278.522C235.448 278.616 235.125 278.709 234.801 278.802C234.418 278.912 234.034 279.021 233.649 279.13C233.353 279.213 233.056 279.296 232.759 279.379C232.229 279.526 231.696 279.671 231.163 279.815C230.874 279.892 230.586 279.969 230.296 280.046C229.907 280.15 229.517 280.252 229.125 280.354C228.844 280.427 228.562 280.501 228.28 280.573C227.684 280.725 227.087 280.875 226.487 281.024C226.206 281.094 225.923 281.162 225.641 281.231C225.236 281.33 224.831 281.428 224.425 281.525C224.161 281.588 223.897 281.651 223.632 281.713C223.004 281.861 222.373 282.008 221.74 282.152C221.482 282.211 221.222 282.268 220.963 282.326C220.561 282.417 220.159 282.506 219.755 282.595C219.42 282.668 219.085 282.741 218.749 282.814C218.244 282.922 217.738 283.03 217.231 283.136C216.924 283.2 216.617 283.263 216.309 283.326C215.812 283.428 215.315 283.529 214.816 283.629C214.543 283.683 214.27 283.738 213.996 283.791C213.589 283.871 213.182 283.95 212.773 284.029C212.22 284.135 211.666 284.239 211.111 284.342C210.76 284.408 210.408 284.474 210.056 284.538C209.695 284.604 209.333 284.668 208.971 284.732C208.607 284.797 208.242 284.861 207.877 284.924C207.55 284.981 207.223 285.039 206.896 285.095C206.266 285.202 205.636 285.307 205.004 285.411C204.683 285.463 204.361 285.514 204.039 285.566C203.671 285.625 203.303 285.684 202.934 285.741C202.581 285.797 202.227 285.852 201.873 285.907C201.3 285.994 200.726 286.08 200.152 286.165C199.776 286.22 199.399 286.274 199.022 286.328C198.605 286.388 198.186 286.447 197.768 286.505C197.493 286.544 197.218 286.583 196.942 286.62C196.225 286.718 195.506 286.814 194.786 286.907C194.717 286.916 194.649 286.925 194.58 286.934C193.911 287.02 193.24 287.103 192.568 287.185C192.335 287.214 192.103 287.242 191.869 287.27C191.271 287.342 190.671 287.413 190.071 287.481C189.844 287.507 189.618 287.534 189.391 287.559C188.768 287.629 188.145 287.697 187.521 287.764C187.263 287.792 187.004 287.818 186.746 287.845C186.06 287.917 185.373 287.987 184.684 288.054C184.657 288.057 184.629 288.06 184.601 288.063C183.843 288.137 183.083 288.207 182.322 288.276C182.236 288.284 182.15 288.294 182.064 288.302L181.61 288.34C179.987 288.484 178.359 288.617 176.727 288.739C176.594 288.748 176.461 288.758 176.328 288.768C174.578 288.896 172.823 289.011 171.065 289.113C171.005 289.116 170.944 289.12 170.884 289.123C169.163 289.222 167.439 289.308 165.712 289.382C165.523 289.39 165.334 289.398 165.146 289.406C164.332 289.44 163.517 289.47 162.702 289.498C162.573 289.503 162.445 289.507 162.316 289.511C161.625 289.534 160.934 289.554 160.243 289.573C160.007 289.579 159.772 289.587 159.536 289.593C158.835 289.611 158.133 289.626 157.432 289.639C157.072 289.646 156.712 289.653 156.352 289.659C155.929 289.665 155.506 289.672 155.084 289.677C154.371 289.686 153.659 289.693 152.946 289.698C152.64 289.7 152.334 289.702 152.029 289.704C151.545 289.706 151.062 289.707 150.578 289.707C150.339 289.707 150.1 289.707 149.861 289.706C147.132 289.702 144.403 289.667 141.678 289.601C141.515 289.597 141.353 289.592 141.191 289.588C140.828 289.579 140.466 289.572 140.104 289.561L137.298 289.47L136.104 289.421C136.059 289.419 136.014 289.417 135.969 289.415C135.178 289.383 134.388 289.349 133.599 289.311C133.216 289.293 132.833 289.275 132.451 289.256C132.015 289.234 131.58 289.211 131.145 289.187C130.889 289.173 130.633 289.159 130.378 289.144C128.9 289.061 127.425 288.968 125.952 288.867C125.63 288.845 125.308 288.823 124.986 288.8C124.55 288.768 124.114 288.736 123.679 288.703C123.34 288.678 123.001 288.651 122.663 288.624C121.89 288.564 121.119 288.501 120.349 288.435C120.206 288.423 120.062 288.411 119.918 288.398C112.758 287.778 105.682 286.941 98.7524 285.878L96.2599 285.485L94.4859 285.193C76.1919 282.121 59.0348 277.47 44.2089 271.256C23.9141 262.748 10.6011 252.393 4.28165 241.468C4.1381 241.219 3.99873 240.971 3.86239 240.722C3.58953 240.224 3.33136 239.725 3.08741 239.225C1.01404 234.976 -0.0155306 230.654 0.000177033 226.334L0.0833348 205.337Z" fill="url(#paint19_linear_294_12217)"/>
<defs>
<linearGradient id="paint0_linear_294_12217" x1="4.07743" y1="194.783" x2="297.02" y2="194.783" gradientUnits="userSpaceOnUse">
<stop stop-color="#5F2EC3"/>
<stop offset="1" stop-color="#B072CA"/>
</linearGradient>
<linearGradient id="paint1_linear_294_12217" x1="150.014" y1="92.149" x2="150.014" y2="293.949" gradientUnits="userSpaceOnUse">
<stop stop-color="#B072CA"/>
<stop offset="1" stop-color="#5F2EC3"/>
</linearGradient>
<linearGradient id="paint2_linear_294_12217" x1="130.252" y1="121.957" x2="130.252" y2="309.973" gradientUnits="userSpaceOnUse">
<stop stop-color="#B072CA"/>
<stop offset="1" stop-color="#5F2EC3"/>
</linearGradient>
<linearGradient id="paint3_linear_294_12217" x1="120.366" y1="106.773" x2="120.366" y2="288.995" gradientUnits="userSpaceOnUse">
<stop stop-color="#B072CA"/>
<stop offset="1" stop-color="#5F2EC3"/>
</linearGradient>
<linearGradient id="paint4_linear_294_12217" x1="110.491" y1="148.26" x2="110.491" y2="311.339" gradientUnits="userSpaceOnUse">
<stop stop-color="#B072CA"/>
<stop offset="1" stop-color="#5F2EC3"/>
</linearGradient>
<linearGradient id="paint5_linear_294_12217" x1="100.6" y1="168.316" x2="100.6" y2="296.838" gradientUnits="userSpaceOnUse">
<stop stop-color="#B072CA"/>
<stop offset="1" stop-color="#5F2EC3"/>
</linearGradient>
<linearGradient id="paint6_linear_294_12217" x1="90.725" y1="136.834" x2="90.725" y2="274.889" gradientUnits="userSpaceOnUse">
<stop stop-color="#B072CA"/>
<stop offset="1" stop-color="#5F2EC3"/>
</linearGradient>
<linearGradient id="paint7_linear_294_12217" x1="80.8422" y1="151.901" x2="80.8422" y2="286.428" gradientUnits="userSpaceOnUse">
<stop stop-color="#B072CA"/>
<stop offset="1" stop-color="#5F2EC3"/>
</linearGradient>
<linearGradient id="paint8_linear_294_12217" x1="70.9632" y1="162.41" x2="70.9632" y2="261.901" gradientUnits="userSpaceOnUse">
<stop stop-color="#B072CA"/>
<stop offset="1" stop-color="#5F2EC3"/>
</linearGradient>
<linearGradient id="paint9_linear_294_12217" x1="140.127" y1="136.393" x2="140.127" y2="298.174" gradientUnits="userSpaceOnUse">
<stop stop-color="#B072CA"/>
<stop offset="1" stop-color="#5F2EC3"/>
</linearGradient>
<linearGradient id="paint10_linear_294_12217" x1="189.545" y1="139.635" x2="189.545" y2="308.517" gradientUnits="userSpaceOnUse">
<stop stop-color="#B072CA"/>
<stop offset="1" stop-color="#5F2EC3"/>
</linearGradient>
<linearGradient id="paint11_linear_294_12217" x1="199.428" y1="171.226" x2="199.428" y2="297.639" gradientUnits="userSpaceOnUse">
<stop stop-color="#B072CA"/>
<stop offset="1" stop-color="#5F2EC3"/>
</linearGradient>
<linearGradient id="paint12_linear_294_12217" x1="209.303" y1="159.948" x2="209.303" y2="282.33" gradientUnits="userSpaceOnUse">
<stop stop-color="#B072CA"/>
<stop offset="1" stop-color="#5F2EC3"/>
</linearGradient>
<linearGradient id="paint13_linear_294_12217" x1="219.186" y1="133.185" x2="219.186" y2="272.955" gradientUnits="userSpaceOnUse">
<stop stop-color="#B072CA"/>
<stop offset="1" stop-color="#5F2EC3"/>
</linearGradient>
<linearGradient id="paint14_linear_294_12217" x1="229.065" y1="176.808" x2="229.065" y2="262.6" gradientUnits="userSpaceOnUse">
<stop stop-color="#B072CA"/>
<stop offset="1" stop-color="#5F2EC3"/>
</linearGradient>
<linearGradient id="paint15_linear_294_12217" x1="159.889" y1="164.346" x2="159.889" y2="326.127" gradientUnits="userSpaceOnUse">
<stop stop-color="#B072CA"/>
<stop offset="1" stop-color="#5F2EC3"/>
</linearGradient>
<linearGradient id="paint16_linear_294_12217" x1="169.776" y1="119.561" x2="169.776" y2="302.33" gradientUnits="userSpaceOnUse">
<stop stop-color="#B072CA"/>
<stop offset="1" stop-color="#5F2EC3"/>
</linearGradient>
<linearGradient id="paint17_linear_294_12217" x1="179.662" y1="157.709" x2="179.662" y2="304.957" gradientUnits="userSpaceOnUse">
<stop stop-color="#B072CA"/>
<stop offset="1" stop-color="#5F2EC3"/>
</linearGradient>
<linearGradient id="paint18_linear_294_12217" x1="-41.0129" y1="210.515" x2="342.506" y2="210.515" gradientUnits="userSpaceOnUse">
<stop stop-color="#B072CA"/>
<stop offset="1" stop-color="#5F2EC3"/>
</linearGradient>
<linearGradient id="paint19_linear_294_12217" x1="-41.0981" y1="247.522" x2="342.524" y2="247.522" gradientUnits="userSpaceOnUse">
<stop stop-color="#5F2EC3"/>
<stop offset="1" stop-color="#B072CA"/>
</linearGradient>
</defs>
</svg>
