<svg width="400" height="400" viewBox="0 0 400 400" fill="none" xmlns="http://www.w3.org/2000/svg">
<path d="M279.141 162.861C279.722 163.095 280.299 163.331 280.872 163.571C303.426 173.026 314.685 185.461 314.638 197.879L314.556 226.875C314.603 214.457 303.343 202.022 280.789 192.567C280.244 192.339 279.694 192.114 279.141 191.892V162.861ZM97.8154 204.754C92.6473 209.048 89.1228 213.607 87.2188 218.262V218.271C86.1189 220.958 85.5626 223.681 85.5508 226.403L85.6338 197.406C85.6338 194.684 86.202 191.962 87.3018 189.274V189.265C89.2059 184.61 92.7421 180.05 97.8984 175.757L97.8154 204.754ZM121.039 191.653C120.281 191.956 119.529 192.263 118.786 192.576C110.093 196.243 103.103 200.366 97.8164 204.763L97.8994 175.766C103.186 171.369 110.176 167.255 118.868 163.58C119.584 163.278 120.309 162.983 121.039 162.69V191.653Z" fill="url(#paint0_linear_294_12219)"/>
<path d="M200.091 0C199.914 6.43208 199.736 12.8728 199.583 19.3048C198.128 77.2193 197.395 135.134 197.395 193.048C197.395 250.963 198.128 308.877 199.583 366.792C199.748 373.224 199.914 379.665 200.091 386.097C200.268 379.665 200.446 373.224 200.6 366.792C202.054 308.877 202.788 250.963 202.788 193.048C202.788 135.134 202.054 77.2193 200.6 19.3048C200.434 12.8728 200.268 6.43208 200.091 0Z" fill="url(#paint1_linear_294_12219)"/>
<path d="M180.329 36.1025C180.152 42.0967 179.975 48.0908 179.821 54.0849C178.366 108.049 177.633 162.005 177.633 215.96C177.633 269.916 178.366 323.88 179.821 377.836C179.986 383.83 180.152 389.824 180.329 395.827C180.507 389.833 180.684 383.839 180.838 377.836C182.293 323.872 183.026 269.916 183.026 215.96C183.026 162.005 182.293 108.041 180.838 54.0849C180.672 48.0908 180.507 42.0967 180.329 36.1025Z" fill="url(#paint2_linear_294_12219)"/>
<path d="M170.443 23.5645C170.265 29.3782 170.088 35.1834 169.934 40.9972C168.479 93.2954 167.746 145.594 167.746 197.883C167.746 250.173 168.479 302.48 169.934 354.769C170.1 360.583 170.265 366.388 170.443 372.202C170.62 366.388 170.797 360.583 170.951 354.769C172.406 302.471 173.139 250.173 173.139 197.883C173.139 145.594 172.406 93.2954 170.951 40.9972C170.786 35.1834 170.62 29.3782 170.443 23.5645Z" fill="url(#paint3_linear_294_12219)"/>
<path d="M160.568 73.793C160.39 78.997 160.213 84.1925 160.059 89.3966C158.604 136.199 157.871 183.001 157.871 229.795C157.871 276.588 158.604 323.399 160.059 370.201C160.225 375.405 160.39 380.601 160.568 385.805C160.745 380.601 160.922 375.405 161.076 370.201C162.531 323.399 163.264 276.597 163.264 229.795C163.264 182.992 162.531 136.19 161.076 89.3966C160.911 84.1925 160.745 78.997 160.568 73.793Z" fill="url(#paint4_linear_294_12219)"/>
<path d="M150.677 109.629C150.5 113.725 150.322 117.821 150.168 121.926C148.714 158.81 147.98 195.693 147.98 232.577C147.98 269.461 148.714 306.344 150.168 343.228C150.334 347.324 150.5 351.42 150.677 355.525C150.854 351.429 151.032 347.333 151.186 343.228C152.64 306.344 153.374 269.461 153.374 232.577C153.374 195.693 152.64 158.81 151.186 121.926C151.02 117.83 150.854 113.734 150.677 109.629Z" fill="url(#paint5_linear_294_12219)"/>
<path d="M140.802 73.793C140.625 78.1984 140.447 82.5952 140.293 87.0006C138.839 126.624 138.105 166.238 138.105 205.861C138.105 245.484 138.839 285.098 140.293 324.721C140.459 329.127 140.625 333.524 140.802 337.929C140.979 333.524 141.157 329.127 141.311 324.721C142.765 285.098 143.499 245.484 143.499 205.861C143.499 166.238 142.765 126.624 141.311 87.0006C141.145 82.5952 140.979 78.1984 140.802 73.793Z" fill="url(#paint6_linear_294_12219)"/>
<path d="M130.919 90.4707C130.742 94.7645 130.564 99.0497 130.411 103.343C128.956 141.953 128.223 180.554 128.223 219.164C128.223 257.774 128.956 296.375 130.411 334.984C130.576 339.278 130.742 343.563 130.919 347.857C131.097 343.563 131.274 339.278 131.428 334.984C132.882 296.375 133.616 257.774 133.616 219.164C133.616 180.554 132.882 141.953 131.428 103.343C131.262 99.0497 131.097 94.7645 130.919 90.4707Z" fill="url(#paint7_linear_294_12219)"/>
<path d="M121.04 116.979C120.863 120.148 120.685 123.326 120.532 126.495C119.077 155.048 118.344 183.602 118.344 212.155C118.344 240.709 119.077 269.263 120.532 297.816C120.697 300.985 120.863 304.163 121.04 307.331C121.218 304.163 121.395 300.985 121.549 297.816C123.004 269.263 123.737 240.709 123.737 212.155C123.737 183.602 123.004 155.048 121.549 126.495C121.383 123.326 121.218 120.148 121.04 116.979Z" fill="url(#paint8_linear_294_12219)"/>
<path d="M190.204 62.5176C190.027 67.6787 189.85 72.8398 189.696 77.9924C188.241 124.425 187.508 170.85 187.508 217.283C187.508 263.715 188.241 310.14 189.696 356.573C189.861 361.734 190.027 366.886 190.204 372.048C190.382 366.886 190.559 361.725 190.713 356.573C192.168 310.14 192.901 263.715 192.901 217.283C192.901 170.85 192.168 124.425 190.713 77.9924C190.547 72.8312 190.382 67.6787 190.204 62.5176Z" fill="url(#paint9_linear_294_12219)"/>
<path d="M239.622 62.5176C239.445 67.902 239.268 73.2864 239.114 78.6708C237.659 127.139 236.926 175.607 236.926 224.075C236.926 272.544 237.659 321.012 239.114 369.48C239.279 374.864 239.445 380.249 239.622 385.633C239.8 380.249 239.977 374.864 240.131 369.48C241.586 321.012 242.319 272.544 242.319 224.075C242.319 175.607 241.586 127.139 240.131 78.6708C239.965 73.2864 239.8 67.902 239.622 62.5176Z" fill="url(#paint10_linear_294_12219)"/>
<path d="M249.505 113.502C249.328 117.53 249.15 121.566 248.997 125.593C247.542 161.876 246.809 198.15 246.809 234.432C246.809 270.714 247.542 306.988 248.997 343.271C249.162 347.298 249.328 351.334 249.505 355.362C249.683 351.326 249.86 347.298 250.014 343.271C251.468 306.988 252.202 270.714 252.202 234.432C252.202 198.15 251.468 161.876 250.014 125.593C249.848 121.566 249.683 117.53 249.505 113.502Z" fill="url(#paint11_linear_294_12219)"/>
<path d="M259.38 104.064C259.203 107.963 259.025 111.871 258.872 115.769C257.417 150.892 256.684 186.016 256.684 221.139C256.684 256.262 257.417 291.385 258.872 326.508C259.037 330.415 259.203 334.314 259.38 338.213C259.558 334.314 259.735 330.407 259.889 326.508C261.343 291.385 262.077 256.262 262.077 221.139C262.077 186.016 261.343 150.892 259.889 115.769C259.723 111.871 259.558 107.963 259.38 104.064Z" fill="url(#paint12_linear_294_12219)"/>
<path d="M269.263 69.3613C269.086 73.8183 268.908 78.2752 268.754 82.7322C267.3 122.845 266.566 162.957 266.566 203.07C266.566 243.182 267.3 283.295 268.754 323.407C268.92 327.864 269.086 332.321 269.263 336.778C269.44 332.321 269.618 327.864 269.772 323.407C271.226 283.295 271.959 243.182 271.959 203.07C271.959 162.957 271.226 122.845 269.772 82.7322C269.606 78.2752 269.44 73.8183 269.263 69.3613Z" fill="url(#paint13_linear_294_12219)"/>
<path d="M279.142 137.633C278.964 140.364 278.787 143.103 278.633 145.843C277.179 170.463 276.445 195.084 276.445 219.704C276.445 244.325 277.179 268.945 278.633 293.566C278.799 296.305 278.964 299.036 279.142 301.775C279.319 299.036 279.497 296.305 279.65 293.566C281.105 268.945 281.838 244.325 281.838 219.704C281.838 195.084 281.105 170.463 279.65 145.843C279.485 143.112 279.319 140.372 279.142 137.633Z" fill="url(#paint14_linear_294_12219)"/>
<path d="M209.966 90.4707C209.789 95.6318 209.611 100.784 209.458 105.945C208.003 152.378 207.27 198.803 207.27 245.236C207.27 291.669 208.003 338.093 209.458 384.526C209.623 389.687 209.789 394.84 209.966 400.001C210.143 394.84 210.321 389.687 210.475 384.526C211.929 338.093 212.663 291.669 212.663 245.236C212.663 198.803 211.929 152.378 210.475 105.945C210.309 100.784 210.143 95.6318 209.966 90.4707Z" fill="url(#paint15_linear_294_12219)"/>
<path d="M219.853 36.1025C219.675 41.9335 219.498 47.7559 219.344 53.5868C217.89 106.04 217.156 158.492 217.156 210.945C217.156 263.398 217.89 315.851 219.344 368.304C219.51 374.135 219.675 379.957 219.853 385.788C220.03 379.957 220.208 374.135 220.361 368.304C221.816 315.851 222.549 263.398 222.549 210.945C222.549 158.492 221.816 106.04 220.361 53.5868C220.196 47.7559 220.03 41.9335 219.853 36.1025Z" fill="url(#paint16_linear_294_12219)"/>
<path d="M229.739 90.4707C229.562 95.1681 229.385 99.8655 229.231 104.554C227.776 146.814 227.043 189.073 227.043 231.332C227.043 273.592 227.776 315.851 229.231 358.111C229.397 362.808 229.562 367.505 229.739 372.194C229.917 367.497 230.094 362.799 230.248 358.111C231.703 315.851 232.436 273.592 232.436 231.332C232.436 189.073 231.703 146.814 230.248 104.554C230.082 99.8569 229.917 95.1595 229.739 90.4707Z" fill="url(#paint17_linear_294_12219)"/>
<path d="M119.477 171.323C119.271 171.409 119.066 171.494 118.861 171.58C74.345 190.361 74.5815 212.933 119.394 231.714C164.206 250.495 236.882 250.495 281.398 231.714C325.915 212.933 325.678 190.361 280.866 171.58C280.585 171.462 280.303 171.346 280.02 171.229V152.336C289.19 154.775 297.868 157.671 305.868 161.025C364.553 185.629 364.86 225.655 306.554 250.259C248.247 274.862 153.065 274.862 94.3799 250.259C35.6949 225.655 35.3869 185.629 93.6934 161.025C101.661 157.663 110.319 154.762 119.477 152.318V171.323Z" fill="url(#paint18_linear_294_12219)"/>
<path d="M50.1732 205.337C50.114 221.602 64.862 237.884 94.3935 250.267C96.2791 251.058 98.2031 251.822 100.161 252.562C114.093 257.824 129.808 261.8 146.431 264.491L146.432 264.489C158.85 266.501 171.778 267.789 184.854 268.367L187.471 268.473L190.276 268.565C204.307 268.971 218.443 268.553 232.237 267.305L234.79 267.065C261.137 264.49 286.117 258.886 306.568 250.259C317.958 245.45 327.111 240.057 334.03 234.303C340.795 228.678 345.42 222.701 347.915 216.604L348.177 215.944C348.253 215.747 348.324 215.549 348.396 215.352C349.512 212.243 350.078 209.105 350.09 205.966L350.008 226.953C350.007 227.187 350.002 227.421 349.995 227.655C349.992 227.759 349.987 227.863 349.982 227.966C349.977 228.099 349.971 228.231 349.964 228.363C349.958 228.469 349.95 228.576 349.943 228.682C349.934 228.815 349.925 228.948 349.914 229.081C349.906 229.182 349.896 229.282 349.887 229.383C349.874 229.517 349.86 229.65 349.845 229.784C349.832 229.904 349.818 230.024 349.803 230.144C349.793 230.229 349.781 230.314 349.77 230.399C349.748 230.561 349.727 230.723 349.703 230.885C349.69 230.971 349.675 231.058 349.661 231.144C349.389 232.839 348.954 234.529 348.359 236.211C348.336 236.276 348.312 236.341 348.288 236.406C348.236 236.551 348.183 236.696 348.129 236.841C348.091 236.941 348.052 237.041 348.013 237.141C347.96 237.279 347.905 237.416 347.849 237.554C347.843 237.569 347.838 237.585 347.832 237.601C347.803 237.67 347.773 237.74 347.744 237.809C347.655 238.024 347.561 238.238 347.467 238.452C347.41 238.58 347.354 238.708 347.296 238.836C347.25 238.936 347.203 239.036 347.156 239.136C347.112 239.231 347.067 239.326 347.021 239.42C344.693 244.267 341.004 249.018 335.951 253.565C335.875 253.633 335.798 253.701 335.722 253.769C335.564 253.91 335.405 254.051 335.244 254.192C335.165 254.261 335.085 254.33 335.005 254.399C334.798 254.578 334.589 254.757 334.378 254.936C334.235 255.057 334.093 255.179 333.948 255.3L333.861 255.37C333.792 255.428 333.723 255.484 333.653 255.541C333.463 255.698 333.27 255.855 333.076 256.011C333.004 256.069 332.932 256.127 332.86 256.185C332.694 256.317 332.527 256.45 332.359 256.582C332.25 256.667 332.141 256.753 332.032 256.838C331.859 256.972 331.684 257.106 331.509 257.24C331.323 257.381 331.137 257.523 330.949 257.664C330.773 257.796 330.596 257.928 330.417 258.059C330.332 258.122 330.246 258.185 330.16 258.249C329.946 258.405 329.73 258.561 329.513 258.716C329.449 258.762 329.386 258.808 329.322 258.853C328.739 259.269 328.144 259.682 327.537 260.093C327.468 260.139 327.4 260.185 327.331 260.231C327.097 260.389 326.861 260.546 326.623 260.703C326.522 260.77 326.421 260.836 326.319 260.902C326.095 261.049 325.868 261.195 325.64 261.341C325.565 261.39 325.49 261.438 325.414 261.486C320.355 264.714 314.516 267.786 307.895 270.652C307.862 270.666 307.828 270.681 307.794 270.695C307.361 270.883 306.925 271.07 306.485 271.256C306.058 271.436 305.627 271.614 305.196 271.792C305.122 271.822 305.047 271.853 304.972 271.884C303.679 272.414 302.368 272.933 301.041 273.44C300.963 273.47 300.886 273.5 300.808 273.529C300.545 273.629 300.28 273.728 300.015 273.827C299.624 273.974 299.231 274.119 298.837 274.264C298.608 274.348 298.38 274.433 298.15 274.516C297.573 274.725 296.993 274.932 296.41 275.137C296.236 275.198 296.061 275.259 295.886 275.32C295.452 275.471 295.017 275.62 294.58 275.769C294.332 275.854 294.084 275.939 293.835 276.022C293.259 276.216 292.68 276.407 292.099 276.597C291.907 276.659 291.714 276.721 291.521 276.783C291.115 276.914 290.706 277.044 290.297 277.173C289.995 277.268 289.692 277.364 289.388 277.458C288.93 277.6 288.471 277.742 288.01 277.882C287.703 277.975 287.396 278.067 287.087 278.159C286.68 278.281 286.271 278.402 285.861 278.522C285.538 278.616 285.215 278.709 284.891 278.802C284.508 278.912 284.124 279.021 283.739 279.13C283.443 279.213 283.146 279.296 282.849 279.379C282.318 279.526 281.786 279.671 281.253 279.815C280.964 279.892 280.676 279.969 280.386 280.046C279.997 280.15 279.606 280.252 279.215 280.354C278.934 280.427 278.652 280.501 278.37 280.573C277.774 280.725 277.177 280.875 276.577 281.024C276.296 281.094 276.013 281.162 275.731 281.231C275.326 281.33 274.921 281.428 274.514 281.525C274.251 281.588 273.987 281.651 273.722 281.713C273.093 281.861 272.463 282.008 271.83 282.152C271.572 282.211 271.312 282.268 271.053 282.326C270.651 282.417 270.248 282.506 269.845 282.595C269.51 282.668 269.175 282.741 268.839 282.814C268.334 282.922 267.828 283.03 267.321 283.136C267.014 283.2 266.706 283.263 266.398 283.326C265.902 283.428 265.405 283.529 264.906 283.629C264.633 283.683 264.36 283.738 264.086 283.791C263.679 283.871 263.271 283.95 262.863 284.029C262.31 284.135 261.756 284.239 261.201 284.342C260.85 284.408 260.498 284.474 260.145 284.538C259.785 284.604 259.423 284.668 259.061 284.732C258.697 284.797 258.332 284.861 257.967 284.924C257.64 284.981 257.313 285.039 256.985 285.095C256.356 285.202 255.726 285.307 255.094 285.411C254.773 285.463 254.451 285.514 254.129 285.566C253.761 285.625 253.393 285.684 253.024 285.741C252.67 285.797 252.317 285.852 251.962 285.907C251.39 285.994 250.816 286.08 250.242 286.165C249.866 286.22 249.489 286.274 249.112 286.328C248.694 286.388 248.276 286.447 247.858 286.505C247.583 286.544 247.307 286.583 247.032 286.62C246.315 286.718 245.596 286.814 244.876 286.907C244.807 286.916 244.739 286.925 244.67 286.934C244.001 287.02 243.33 287.103 242.658 287.185C242.425 287.214 242.192 287.242 241.959 287.27C241.361 287.342 240.761 287.413 240.161 287.481C239.934 287.507 239.708 287.534 239.481 287.559C238.858 287.629 238.235 287.697 237.611 287.764C237.353 287.792 237.094 287.818 236.836 287.845C236.15 287.917 235.462 287.987 234.774 288.054C234.747 288.057 234.719 288.06 234.691 288.063C233.933 288.137 233.173 288.207 232.412 288.276C232.326 288.284 232.24 288.294 232.154 288.302L231.7 288.34C230.076 288.484 228.449 288.617 226.816 288.739C226.684 288.748 226.551 288.758 226.418 288.768C224.668 288.896 222.913 289.011 221.155 289.113C221.094 289.116 221.034 289.12 220.974 289.123C219.253 289.222 217.528 289.308 215.802 289.382C215.613 289.39 215.424 289.398 215.236 289.406C214.421 289.44 213.607 289.47 212.792 289.498C212.663 289.503 212.535 289.507 212.406 289.511C211.715 289.534 211.024 289.554 210.333 289.573C210.097 289.579 209.862 289.587 209.626 289.593C208.925 289.611 208.223 289.626 207.522 289.639C207.162 289.646 206.802 289.653 206.442 289.659C206.019 289.665 205.596 289.672 205.174 289.677C204.461 289.686 203.748 289.693 203.036 289.698C202.73 289.7 202.424 289.702 202.119 289.704C201.635 289.706 201.152 289.707 200.668 289.707C200.429 289.707 200.19 289.707 199.951 289.706C197.222 289.702 194.493 289.667 191.768 289.601C191.605 289.597 191.443 289.592 191.28 289.588C190.918 289.579 190.556 289.572 190.194 289.561L187.388 289.47L186.194 289.421C186.149 289.419 186.104 289.417 186.059 289.415C185.268 289.383 184.478 289.349 183.689 289.311C183.306 289.293 182.923 289.275 182.541 289.256C182.105 289.234 181.67 289.211 181.234 289.187C180.979 289.173 180.723 289.159 180.468 289.144C178.99 289.061 177.514 288.968 176.042 288.867C175.72 288.845 175.398 288.823 175.076 288.8C174.64 288.768 174.204 288.736 173.769 288.703C173.43 288.678 173.091 288.651 172.752 288.624C171.98 288.564 171.209 288.501 170.439 288.435C170.295 288.423 170.152 288.411 170.008 288.398C162.848 287.778 155.772 286.941 148.842 285.878L146.35 285.485L144.576 285.193C126.282 282.121 109.125 277.47 94.2988 271.256C74.004 262.748 60.6909 252.393 54.3715 241.468C54.2279 241.219 54.0886 240.971 53.9522 240.722C53.6794 240.224 53.4212 239.725 53.1773 239.225C51.1039 234.976 50.0743 230.654 50.09 226.334L50.1732 205.337Z" fill="url(#paint19_linear_294_12219)"/>
<defs>
<linearGradient id="paint0_linear_294_12219" x1="54.1673" y1="194.783" x2="347.11" y2="194.783" gradientUnits="userSpaceOnUse">
<stop stop-color="#5F2EC3"/>
<stop offset="1" stop-color="#B072CA"/>
</linearGradient>
<linearGradient id="paint1_linear_294_12219" x1="200.104" y1="92.149" x2="200.104" y2="293.949" gradientUnits="userSpaceOnUse">
<stop stop-color="#B072CA"/>
<stop offset="1" stop-color="#5F2EC3"/>
</linearGradient>
<linearGradient id="paint2_linear_294_12219" x1="180.342" y1="121.957" x2="180.342" y2="309.973" gradientUnits="userSpaceOnUse">
<stop stop-color="#B072CA"/>
<stop offset="1" stop-color="#5F2EC3"/>
</linearGradient>
<linearGradient id="paint3_linear_294_12219" x1="170.455" y1="106.773" x2="170.455" y2="288.995" gradientUnits="userSpaceOnUse">
<stop stop-color="#B072CA"/>
<stop offset="1" stop-color="#5F2EC3"/>
</linearGradient>
<linearGradient id="paint4_linear_294_12219" x1="160.58" y1="148.26" x2="160.58" y2="311.339" gradientUnits="userSpaceOnUse">
<stop stop-color="#B072CA"/>
<stop offset="1" stop-color="#5F2EC3"/>
</linearGradient>
<linearGradient id="paint5_linear_294_12219" x1="150.69" y1="168.316" x2="150.69" y2="296.838" gradientUnits="userSpaceOnUse">
<stop stop-color="#B072CA"/>
<stop offset="1" stop-color="#5F2EC3"/>
</linearGradient>
<linearGradient id="paint6_linear_294_12219" x1="140.815" y1="136.834" x2="140.815" y2="274.889" gradientUnits="userSpaceOnUse">
<stop stop-color="#B072CA"/>
<stop offset="1" stop-color="#5F2EC3"/>
</linearGradient>
<linearGradient id="paint7_linear_294_12219" x1="130.932" y1="151.901" x2="130.932" y2="286.428" gradientUnits="userSpaceOnUse">
<stop stop-color="#B072CA"/>
<stop offset="1" stop-color="#5F2EC3"/>
</linearGradient>
<linearGradient id="paint8_linear_294_12219" x1="121.053" y1="162.41" x2="121.053" y2="261.901" gradientUnits="userSpaceOnUse">
<stop stop-color="#B072CA"/>
<stop offset="1" stop-color="#5F2EC3"/>
</linearGradient>
<linearGradient id="paint9_linear_294_12219" x1="190.217" y1="136.393" x2="190.217" y2="298.174" gradientUnits="userSpaceOnUse">
<stop stop-color="#B072CA"/>
<stop offset="1" stop-color="#5F2EC3"/>
</linearGradient>
<linearGradient id="paint10_linear_294_12219" x1="239.635" y1="139.635" x2="239.635" y2="308.517" gradientUnits="userSpaceOnUse">
<stop stop-color="#B072CA"/>
<stop offset="1" stop-color="#5F2EC3"/>
</linearGradient>
<linearGradient id="paint11_linear_294_12219" x1="249.518" y1="171.226" x2="249.518" y2="297.639" gradientUnits="userSpaceOnUse">
<stop stop-color="#B072CA"/>
<stop offset="1" stop-color="#5F2EC3"/>
</linearGradient>
<linearGradient id="paint12_linear_294_12219" x1="259.393" y1="159.948" x2="259.393" y2="282.33" gradientUnits="userSpaceOnUse">
<stop stop-color="#B072CA"/>
<stop offset="1" stop-color="#5F2EC3"/>
</linearGradient>
<linearGradient id="paint13_linear_294_12219" x1="269.276" y1="133.185" x2="269.276" y2="272.955" gradientUnits="userSpaceOnUse">
<stop stop-color="#B072CA"/>
<stop offset="1" stop-color="#5F2EC3"/>
</linearGradient>
<linearGradient id="paint14_linear_294_12219" x1="279.155" y1="176.808" x2="279.155" y2="262.6" gradientUnits="userSpaceOnUse">
<stop stop-color="#B072CA"/>
<stop offset="1" stop-color="#5F2EC3"/>
</linearGradient>
<linearGradient id="paint15_linear_294_12219" x1="209.979" y1="164.346" x2="209.979" y2="326.127" gradientUnits="userSpaceOnUse">
<stop stop-color="#B072CA"/>
<stop offset="1" stop-color="#5F2EC3"/>
</linearGradient>
<linearGradient id="paint16_linear_294_12219" x1="219.866" y1="119.561" x2="219.866" y2="302.33" gradientUnits="userSpaceOnUse">
<stop stop-color="#B072CA"/>
<stop offset="1" stop-color="#5F2EC3"/>
</linearGradient>
<linearGradient id="paint17_linear_294_12219" x1="229.752" y1="157.709" x2="229.752" y2="304.957" gradientUnits="userSpaceOnUse">
<stop stop-color="#B072CA"/>
<stop offset="1" stop-color="#5F2EC3"/>
</linearGradient>
<linearGradient id="paint18_linear_294_12219" x1="9.07696" y1="210.515" x2="392.596" y2="210.515" gradientUnits="userSpaceOnUse">
<stop stop-color="#B072CA"/>
<stop offset="1" stop-color="#5F2EC3"/>
</linearGradient>
<linearGradient id="paint19_linear_294_12219" x1="8.9917" y1="247.522" x2="392.613" y2="247.522" gradientUnits="userSpaceOnUse">
<stop stop-color="#5F2EC3"/>
<stop offset="1" stop-color="#B072CA"/>
</linearGradient>
</defs>
</svg>
